<svg width="1332" height="129" viewBox="0 0 1332 129" fill="none" xmlns="http://www.w3.org/2000/svg">
<path opacity="0.1" d="M1331.43 99.6027C1331.43 96.1032 1329.61 92.8619 1326.61 91.0566C1243.67 41.1131 1146.58 -10.7515 1035.94 1.93974C956.32 11.0692 903.928 61.4119 833.881 85.9312C742.892 117.754 671.558 77.1147 590.147 49.7783C480.288 12.9473 344.554 22.9637 246.561 75.1323C227.104 85.5151 208.177 97.6182 189.138 109.536C180.455 114.972 184.326 128.97 194.569 128.97H1321.43C1326.95 128.97 1331.43 124.493 1331.43 118.97V99.6027Z" fill="white"/>
<path opacity="0.1" d="M960.498 128.937C960.498 128.952 960.483 128.962 960.469 128.955C954.403 125.934 948.338 122.965 942.343 119.996C798.604 50.0905 625.632 14.042 454.089 18.1112C306.978 21.6509 164.84 55.421 39.1597 110.73C29.4591 114.999 32.5824 128.917 43.1808 128.917H960.478C960.489 128.917 960.498 128.926 960.498 128.937V128.937Z" fill="white"/>
</svg>
